<svg width="56" height="56" viewBox="0 0 56 56" fill="none" xmlns="http://www.w3.org/2000/svg">
<g clip-path="url(#clip0_76_267)">
<g filter="url(#filter0_d_76_267)">
<path d="M18.669 9.33325H37.3357V13.9929H42.0024V9.33325C43.2396 9.33387 44.426 9.82581 45.3007 10.7009C46.1754 11.576 46.6667 12.7626 46.6667 13.9999V41.9999C46.6667 43.2372 46.1754 44.4238 45.3007 45.2989C44.426 46.174 43.2396 46.666 42.0024 46.6666V41.9929H37.3357V46.6666H18.669V41.9929H14.0024V46.6666H14C12.7624 46.6666 11.5754 46.1749 10.7002 45.2997C9.82504 44.4246 9.33337 43.2376 9.33337 41.9999V13.9999C9.33337 12.7622 9.82504 11.5753 10.7002 10.7001C11.5754 9.82492 12.7624 9.33325 14 9.33325H14.0024V13.9929H18.669V9.33325ZM23.3334 34.9999L33.8334 27.9999L23.3334 20.9999V34.9999ZM42.0024 37.3262V30.3262H37.3357V37.3262H42.0024ZM42.0024 25.6596V18.6596H37.3357V25.6596H42.0024ZM18.669 37.3262V30.3262H14.0024V37.3262H18.669ZM18.669 25.6596V18.6596H14.0024V25.6596H18.669Z" fill="#00AD3B"/>
</g>
</g>
<defs>
<filter id="filter0_d_76_267" x="-30.6666" y="-26.6667" width="117.333" height="117.333" filterUnits="userSpaceOnUse" color-interpolation-filters="sRGB">
<feFlood flood-opacity="0" result="BackgroundImageFix"/>
<feColorMatrix in="SourceAlpha" type="matrix" values="0 0 0 0 0 0 0 0 0 0 0 0 0 0 0 0 0 0 127 0" result="hardAlpha"/>
<feOffset dy="4"/>
<feGaussianBlur stdDeviation="20"/>
<feComposite in2="hardAlpha" operator="out"/>
<feColorMatrix type="matrix" values="0 0 0 0 1 0 0 0 0 0.831373 0 0 0 0 0.145098 0 0 0 0.2 0"/>
<feBlend mode="normal" in2="BackgroundImageFix" result="effect1_dropShadow_76_267"/>
<feBlend mode="normal" in="SourceGraphic" in2="effect1_dropShadow_76_267" result="shape"/>
</filter>
<clipPath id="clip0_76_267">
<rect width="56" height="56" fill="white"/>
</clipPath>
</defs>
</svg>
