<svg width="256" height="256" viewBox="0 0 256 256" fill="none" xmlns="http://www.w3.org/2000/svg">
<path d="M164.401 123.046C147.228 133.272 126.28 121.223 127.264 121.014C159.727 113.955 162.596 93.4748 162.596 93.4748C156.115 77.6396 138.449 82.7373 138.449 82.7373C137.938 105.209 111.191 106.475 111.191 106.475C109.473 99.1835 109.568 82.1595 109.568 82.1595C101.461 76.4917 99.8199 78.8974 99.8199 78.8974C102.376 56.3998 112.672 49.1469 112.672 49.1469C114.387 47.5491 122.054 43.9571 125.991 43.4918L126.132 44.1156C126.132 44.1156 122.151 54.0555 129.78 54.7099C136.2 55.2724 139.848 47.3701 140.842 44.8621C149.189 47.4493 157.155 53.2399 162.455 62.9803C174.992 86.025 164.401 123.046 164.401 123.046Z" fill="#3A86FF"/>
<path d="M166.257 113.349L207.982 140.96C216.074 146.313 215.033 158.498 206.16 162.402L157.33 183.892C152.789 185.89 147.809 186.686 142.872 186.203C137.934 185.72 133.204 183.974 129.136 181.134L110.384 168.024" stroke="#FF006E" stroke-width="1.0763" stroke-miterlimit="10"/>
<path d="M166.257 122.254L164.854 121.323L207.99 149.859C216.082 155.213 215.041 167.397 206.167 171.301L157.337 192.791C152.796 194.789 147.817 195.585 142.879 195.102C137.942 194.619 133.212 192.873 129.144 190.033L105.302 173.052" stroke="#FF006E" stroke-width="1.0763" stroke-miterlimit="10"/>
<path d="M202.568 160.878L157.688 180.632C153.514 182.468 148.938 183.199 144.4 182.755C139.863 182.311 135.515 180.707 131.777 178.096L114.579 166.014C116.947 164.2 119.6 162.791 122.43 161.847C129.52 159.439 136.438 156.555 143.138 153.214C148.224 150.697 152.692 147.089 156.222 142.646C159.752 138.203 162.258 133.036 163.56 127.513C164.46 123.691 165.25 119.825 165.897 115.939L205.395 142.049C212.83 146.968 210.72 157.294 202.568 160.878Z" fill="#FFD425"/>
<path d="M86.9227 218.129C86.9227 218.129 94.7917 214.867 96.3001 212.408C96.3001 212.408 96.5839 217.991 95.1113 219.898C93.6387 221.806 84.8391 226.847 84.3662 226.216C83.8932 225.584 86.9227 218.129 86.9227 218.129Z" fill="#D1D1D6"/>
<path d="M62.6998 231.433C62.6998 231.433 64.1314 233.376 69.2113 231.433C74.2911 229.49 85.3431 222.335 85.3431 222.335C85.3431 222.335 82.2599 230.613 81.1427 231.523C80.0255 232.433 58.9187 242.772 58.9187 242.772C58.9187 242.772 49.4825 244.114 53.0386 237.403L62.6998 231.433Z" fill="#D1D1D6"/>
<path d="M93.0763 123.271C81.444 127.799 69.1343 138.437 72.6751 167.896L73.6593 175.55" stroke="#3C3C43" stroke-width="1.0763" stroke-miterlimit="10"/>
<path d="M93.0581 104.033C94.9602 101.318 96.6782 98.3834 97.7315 95.2235C98.7848 92.0637 98.8384 88.6405 99.1325 85.3169C99.9148 76.4048 101.127 69.0343 104.565 60.7332C107.543 53.5494 116.54 44.2947 125.49 43.4178L126.296 43.3488" stroke="#3C3C43" stroke-width="1.0763" stroke-miterlimit="10"/>
<path d="M115.556 122.62C115.512 122.494 115.469 122.377 115.423 122.254" stroke="#3C3C43" stroke-width="1.0763" stroke-miterlimit="10"/>
<path d="M111.191 105.923C110.751 103.338 110.424 100.833 110.169 98.455C110.169 98.4103 110.164 98.3655 110.153 98.3221C108.814 85.0459 110.169 75.3873 110.169 75.3873" stroke="#3C3C43" stroke-width="1.0763" stroke-miterlimit="10"/>
<path d="M142.461 25.3454L140.415 26.1431C140.415 26.2071 140.415 27.0047 140.328 28.1219C140.233 29.4562 140.021 30.7797 139.694 32.0769C139.876 31.1923 140.139 29.0908 138.984 27.6285C138.966 27.5986 138.945 27.5702 138.922 27.5441C138.155 26.6212 137.209 26.9868 136.45 27.6208C135.926 28.0644 135.468 28.5811 135.09 29.1547C135.222 27.4467 134.916 25.7333 134.2 24.1771C133.734 23.1154 133.114 22.1276 132.362 21.2447C133.52 25.2329 132.035 27.8432 132.035 27.8432C128.111 28.7661 125.388 28.5693 123.358 28.219C121.648 26.6238 122.241 20.8791 122.241 20.8791C120.52 22.2852 120.934 27.7256 120.934 27.7256C120.715 26.306 120.741 24.859 121.014 23.4484C120.159 24.6571 119.665 26.0836 119.59 27.562L119.559 27.5467C119.44 27.5163 119.324 27.4794 119.209 27.4367C118.998 27.3258 118.794 27.2031 118.598 27.0686L117.465 26.3016C119.176 17.5761 125.155 12.0897 134.395 13.7003C134.998 13.8043 135.591 13.9582 136.169 14.1605C142.256 17.3332 142.461 25.3454 142.461 25.3454Z" fill="#00AD3B"/>
<path d="M89.7346 110.325L87.4056 103.315C87.3542 103.152 87.2619 103.004 87.1374 102.887C87.0131 102.769 86.8608 102.685 86.6948 102.643C86.6744 102.643 86.6514 102.643 86.6284 102.627C86.6054 102.612 86.6002 102.627 86.5849 102.627C86.5315 102.624 86.4775 102.624 86.4238 102.627C86.1656 102.628 85.9171 102.727 85.7285 102.903C85.5395 103.078 85.3885 103.29 85.2852 103.526C85.1816 103.762 85.1282 104.016 85.1277 104.274C85.1279 104.475 85.1599 104.675 85.2223 104.867C85.7336 106.347 86.6437 109.019 87.0758 110.236" fill="#3FBDF1"/>
<path d="M89.208 110.325L86.6975 102.643C86.6771 102.643 86.6541 102.643 86.6311 102.627C86.608 102.612 86.6029 102.627 86.5876 102.627L85.271 102.372C84.5679 102.241 83.8649 102.101 83.1618 101.97C82.3182 101.802 81.4694 101.661 80.6283 101.459C80.4297 101.403 80.2256 101.368 80.0198 101.357C79.7606 101.356 79.5113 101.456 79.3245 101.635C79.1337 101.81 78.9816 102.022 78.8781 102.259C78.7745 102.496 78.7221 102.752 78.7237 103.011C78.7224 103.21 78.7543 103.408 78.8183 103.596C79.3833 105.253 80.4596 108.387 80.8021 109.338L89.208 110.325Z" fill="#3FBDF1"/>
<path d="M138.846 75.3847C138.59 78.2301 138.457 81.6738 138.368 86.002C138.368 95.2055 128.193 102.827 119.15 104.57L102.569 108.315C100.378 108.74 98.4371 107.372 96.9134 106.465C95.3462 105.531 93.7407 104.419 92.6107 103.594C90.9848 102.405 87.853 103.361 88.4947 106.196C88.633 106.735 88.894 107.235 89.2573 107.657C89.6203 108.078 90.0759 108.411 90.5885 108.627C90.8774 108.757 91.1744 108.866 91.4784 108.955C91.5914 108.983 91.6921 109.048 91.7645 109.139C91.8368 109.231 91.8772 109.343 91.8788 109.46C91.8806 109.577 91.8437 109.691 91.7742 109.784C91.7044 109.878 91.6057 109.946 91.4938 109.977C90.057 110.473 87.426 110.767 83.1822 109.21C77.7444 107.208 77.3228 119.618 84.7573 121.778H84.7854C91.6344 123.849 99.0049 123.583 106.084 123.287C114.122 122.982 122.122 122.006 129.998 120.37C134.004 119.521 138.12 118.639 141.786 116.826C148.1 113.705 152.651 110.126 156.98 104.555C161.837 98.3092 163.91 90.1155 165.081 82.433C166.421 73.6437 164.57 66.222 159.858 58.6572L159.684 58.3811" stroke="#3C3C43" stroke-width="1.0763" stroke-miterlimit="10"/>
<path d="M89.7346 110.325L87.4056 103.315C87.3542 103.152 87.2619 103.004 87.1374 102.887C87.0131 102.769 86.8608 102.685 86.6948 102.643C86.6744 102.643 86.6514 102.643 86.6284 102.627C86.6054 102.612 86.6002 102.627 86.5849 102.627C86.5315 102.624 86.4775 102.624 86.4238 102.627C86.1656 102.628 85.9171 102.727 85.7285 102.903C85.5395 103.078 85.3885 103.29 85.2852 103.526C85.1816 103.762 85.1282 104.016 85.1277 104.274C85.1279 104.475 85.1599 104.675 85.2223 104.867C85.7336 106.347 86.6437 109.019 87.0758 110.236" stroke="#3C3C43" stroke-width="1.0763" stroke-miterlimit="10"/>
<path d="M86.6975 102.643C86.6771 102.643 86.6541 102.643 86.6311 102.627C86.608 102.612 86.6029 102.627 86.5876 102.627L85.271 102.372C84.5679 102.241 83.8649 102.101 83.1618 101.97C82.3182 101.802 81.4694 101.661 80.6283 101.459C80.4297 101.403 80.2256 101.368 80.0198 101.357C79.7606 101.356 79.5113 101.456 79.3245 101.635C79.1337 101.81 78.9816 102.022 78.8781 102.259C78.7745 102.496 78.7221 102.752 78.7237 103.011C78.7224 103.21 78.7543 103.408 78.8183 103.596C79.3833 105.253 80.4596 108.387 80.8021 109.338" stroke="#3C3C43" stroke-width="1.0763" stroke-miterlimit="10"/>
<path d="M118.795 27.3115C118.795 30.635 119.442 33.8128 121.037 36.7477C122.316 39.1049 124.192 41.4799 126.877 42.2596C127.472 42.4312 128.088 42.5173 128.707 42.5153C133.263 42.4948 133.974 37.098 133.974 37.098" stroke="#3C3C43" stroke-width="1.0763" stroke-miterlimit="10"/>
<path d="M140.175 29.2393V29.2546C139.964 30.9036 139.601 32.5298 139.091 34.112C138.482 35.9995 138.338 38.0064 138.672 39.9614L139.38 44.08C139.412 44.2635 139.495 44.4343 139.62 44.5726C139.745 44.7109 139.906 44.8114 140.085 44.8623C149.074 47.4725 157.053 53.2324 161.696 61.5488C167.486 71.9335 168.542 84.4401 168.074 96.0979C167.663 106.204 166.029 116.251 163.71 126.086C162.293 132.097 159.566 137.721 155.724 142.556C151.881 147.391 147.019 151.318 141.484 154.057C134.2 157.694 126.677 160.833 118.968 163.453C114.887 164.804 111.159 167.048 108.054 170.021C104.949 172.994 102.546 176.622 101.019 180.64L82.9033 228.811C82.2373 230.589 80.9243 232.05 79.227 232.901L61.8681 241.621C59.6758 242.719 57.1753 243.036 54.7788 242.521C54.1573 242.387 53.5907 242.069 53.1525 241.608C52.7146 241.148 52.4255 240.566 52.3227 239.938C52.2202 239.311 52.3089 238.667 52.5773 238.091C52.8458 237.515 53.2814 237.033 53.8277 236.708L62.6938 231.434L74.886 169.279C75.7439 163.734 77.7925 158.44 80.891 153.762C83.9895 149.084 88.0644 145.133 92.8354 142.18C93.4715 141.792 94.1344 141.45 94.8193 141.157L121.249 129.681" stroke="#3C3C43" stroke-width="1.0763" stroke-miterlimit="10"/>
<path d="M132.909 13.0999C131.496 12.7631 130.033 12.6886 128.594 12.88C128.535 12.8813 128.476 12.8864 128.417 12.8953" stroke="#3C3C43" stroke-width="1.0763" stroke-miterlimit="10"/>
<path d="M126.508 43.4995C126.508 43.4995 121.832 54.2191 130.194 54.7483C137.698 55.2289 140.451 45.0334 140.451 45.0334" stroke="#3C3C43" stroke-width="1.0763" stroke-miterlimit="10"/>
<path d="M139.587 32.468C139.641 32.2712 140.446 29.3644 138.907 27.5339C137.368 25.7034 135.282 28.8429 135.072 29.1573C135.481 24.6502 132.35 21.2321 132.35 21.2321C133.505 25.2229 132.017 27.8305 132.017 27.8305C126.298 29.1701 123.151 28.15 120.919 27.7103C120.7 26.2914 120.728 24.8453 121.001 23.4359C120.144 24.6414 119.65 26.067 119.577 27.5441H119.541C118.692 27.3184 117.886 26.951 117.159 26.4576L116.026 25.6906C117.739 16.9678 123.716 11.4764 132.956 13.087C142.195 14.6976 142.453 25.3226 142.453 25.3226L140.395 26.1227C140.395 26.1227 140.413 29.6303 139.587 32.468Z" stroke="#3C3C43" stroke-width="1.0763" stroke-miterlimit="10"/>
<path d="M122.379 32.0131V36.2544C122.38 36.306 122.392 36.3569 122.416 36.4026C122.44 36.4487 122.474 36.4883 122.515 36.5187C122.557 36.5491 122.606 36.5691 122.656 36.5775C122.708 36.5857 122.76 36.5819 122.809 36.5663C123.142 36.4558 123.449 36.2764 123.709 36.0396" stroke="#3C3C43" stroke-width="1.0763" stroke-miterlimit="10"/>
<path d="M119.843 35.2327C121.18 34.7112 121.677 32.7805 120.952 30.9203C120.226 29.0602 118.554 27.9752 117.216 28.4967C115.878 29.0183 115.382 30.949 116.107 32.8091C116.832 34.6693 118.505 35.7543 119.843 35.2327Z" stroke="#3C3C43" stroke-width="1.0763" stroke-miterlimit="10"/>
<path d="M127.894 36.4456C129.231 35.9241 129.728 33.9934 129.003 32.1332C128.278 30.2731 126.605 29.1881 125.267 29.7096C123.929 30.2312 123.433 32.1621 124.158 34.022C124.883 35.8822 126.556 36.9674 127.894 36.4456Z" stroke="#3C3C43" stroke-width="1.0763" stroke-miterlimit="10"/>
<path d="M121.254 32.2329C121.254 32.2329 122.047 31.3279 123.708 32.3888" stroke="#3C3C43" stroke-width="1.0763" stroke-miterlimit="10"/>
<path d="M126.132 41.9912C126.132 41.9912 126.708 43.9393 128.4 50.254" stroke="#3C3C43" stroke-width="1.0763" stroke-miterlimit="10"/>
<path d="M83.7596 226.535L93.7302 221.153C94.3015 220.844 94.7886 220.399 95.149 219.858C95.5095 219.317 95.7324 218.696 95.7984 218.05C97.455 201.777 96.9488 191.49 96.9488 191.49" stroke="#3C3C43" stroke-width="1.0763" stroke-miterlimit="10"/>
<path d="M74.7101 143.085L36.339 116.269" stroke="#00AD3B" stroke-width="1.0763" stroke-miterlimit="10"/>
<path d="M72.5371 150.473L36.339 125.173" stroke="#00AD3B" stroke-width="1.0763" stroke-miterlimit="10"/>
<path d="M219.316 99.5032V121.456C219.316 122.463 219.023 123.448 218.474 124.291C217.925 125.135 217.143 125.801 216.222 126.209L188.995 138.266L180.671 150.915C180.457 151.229 180.148 151.466 179.79 151.593C179.432 151.72 179.043 151.729 178.679 151.62C178.315 151.511 177.996 151.289 177.766 150.987C177.537 150.684 177.41 150.316 177.404 149.936V143.402L174.612 144.636C173.991 144.908 173.312 145.021 172.637 144.965C171.962 144.909 171.31 144.687 170.742 144.317C170.174 143.948 169.707 143.443 169.382 142.848C169.058 142.253 168.886 141.587 168.883 140.909V122.576C168.883 120.289 169.552 118.053 170.807 116.141C172.062 114.23 173.848 112.727 175.946 111.818L213.364 95.5969C214.012 95.3156 214.719 95.1998 215.423 95.2604C216.127 95.3208 216.804 95.5552 217.395 95.9428C217.985 96.3303 218.47 96.8588 218.805 97.4803C219.14 98.1018 219.316 98.7969 219.316 99.5032Z" fill="#FB5607"/>
<path d="M185.916 128.196C187.257 125.609 186.894 122.76 185.105 121.833C183.316 120.906 180.779 122.251 179.438 124.839C178.097 127.426 178.46 130.275 180.248 131.202C182.037 132.13 184.575 130.784 185.916 128.196Z" fill="white"/>
<path d="M197.544 123.22C198.885 120.632 198.522 117.783 196.733 116.856C194.945 115.929 192.407 117.274 191.066 119.862C189.725 122.449 190.088 125.298 191.877 126.225C193.665 127.153 196.203 125.807 197.544 123.22Z" fill="white"/>
<path d="M208.781 117.845C210.122 115.258 209.759 112.409 207.97 111.482C206.181 110.554 203.644 111.9 202.303 114.487C200.962 117.075 201.325 119.924 203.114 120.851C204.902 121.778 207.44 120.432 208.781 117.845Z" fill="white"/>
</svg>
