<svg width="114" height="107" viewBox="0 0 114 107" fill="none" xmlns="http://www.w3.org/2000/svg">
<g filter="url(#filter0_d_140_3477)">
<path d="M73.5508 56.5616H67.1444V58.48C67.6607 58.0224 68.2825 57.7936 69.01 57.7936C70.0543 57.7936 70.8932 58.1222 71.5268 58.7792C72.1721 59.4246 72.4948 60.2518 72.4948 61.2608C72.4948 62.352 72.1311 63.2262 71.4036 63.8832C70.6761 64.5286 69.7433 64.8512 68.6052 64.8512C68.4292 64.8512 68.2943 64.8454 68.2004 64.8336V62.8448C68.2708 62.8566 68.3647 62.8624 68.482 62.8624C68.9631 62.8624 69.3327 62.7158 69.5908 62.4224C69.8607 62.1291 69.9956 61.7536 69.9956 61.296C69.9956 60.8736 69.8724 60.5158 69.626 60.2224C69.3796 59.9174 69.0217 59.7648 68.5524 59.7648C68.1417 59.7648 67.8015 59.9174 67.5316 60.2224C67.2735 60.5158 67.1444 60.9088 67.1444 61.4016V66.4H64.6452V64.3584C64.1407 64.8043 63.5188 65.0272 62.7796 65.0272C61.7353 65.0272 60.8905 64.7046 60.2452 64.0592C59.6116 63.4022 59.2948 62.5691 59.2948 61.56C59.2948 60.4688 59.6585 59.6006 60.386 58.9552C61.1135 58.2982 62.0463 57.9696 63.1844 57.9696C63.3487 57.9696 63.4836 57.9755 63.5892 57.9872V59.976C63.5188 59.9643 63.4249 59.9584 63.3076 59.9584C62.8265 59.9584 62.4511 60.1051 62.1812 60.3984C61.9231 60.6918 61.794 61.0672 61.794 61.5248C61.794 61.9472 61.9172 62.311 62.1636 62.616C62.41 62.9094 62.7679 63.056 63.2372 63.056C63.6479 63.056 63.9823 62.9094 64.2404 62.616C64.5103 62.311 64.6452 61.912 64.6452 61.4192V56.5616H58.2564V54.5904H73.5508V56.5616Z" fill="#FF006E"/>
<path d="M45.4023 47.9696H48.5127L48.3783 47.5088C48.0071 46.2544 47.6999 45.1856 47.4567 44.3024C47.2263 43.4192 47.0855 42.8496 47.0343 42.5936L46.9575 42.2096C46.8551 42.9136 46.3815 44.68 45.5367 47.5088L45.4023 47.9696ZM50.0103 53L49.2231 50.3504H44.6919L43.9047 53H40.8135L45.1335 40.0592H48.8583L53.1783 53H50.0103Z" fill="#FF006E"/>
<path d="M56.4 45H61.6C62.4 44.8667 64 45 64 46.6C64 48.2 64 50.7333 64 51.8" stroke="#FF006E" stroke-width="2" stroke-linecap="round"/>
<path d="M45.6411 55.8V61.2737C45.5008 62.1158 45.6411 63.8 47.3256 63.8C49.01 63.8 51.677 63.8 52.8 63.8" stroke="#FF006E" stroke-width="2" stroke-linecap="round"/>
</g>
<defs>
<filter id="filter0_d_140_3477" x="0.813477" y="0.0592041" width="112.737" height="106.341" filterUnits="userSpaceOnUse" color-interpolation-filters="sRGB">
<feFlood flood-opacity="0" result="BackgroundImageFix"/>
<feColorMatrix in="SourceAlpha" type="matrix" values="0 0 0 0 0 0 0 0 0 0 0 0 0 0 0 0 0 0 127 0" result="hardAlpha"/>
<feOffset/>
<feGaussianBlur stdDeviation="20"/>
<feComposite in2="hardAlpha" operator="out"/>
<feColorMatrix type="matrix" values="0 0 0 0 1 0 0 0 0 0 0 0 0 0 0.431373 0 0 0 0.6 0"/>
<feBlend mode="normal" in2="BackgroundImageFix" result="effect1_dropShadow_140_3477"/>
<feBlend mode="normal" in="SourceGraphic" in2="effect1_dropShadow_140_3477" result="shape"/>
</filter>
</defs>
</svg>
