<svg width="187" height="52" viewBox="0 0 187 52" fill="none" xmlns="http://www.w3.org/2000/svg">
<path d="M11.3479 39.7703C9.71659 39.7703 8.15663 39.5052 6.66804 38.975C5.17946 38.4448 3.91518 37.5884 2.87521 36.4057C1.85563 35.2026 1.25408 33.6528 1.07056 31.7564H5.62807C5.97473 33.2857 6.66804 34.3767 7.70801 35.0292C8.74799 35.6818 9.97148 36.008 11.3785 36.008C12.6632 36.008 13.6929 35.7429 14.4678 35.2127C15.2427 34.6622 15.6301 33.8567 15.6301 32.7963C15.6301 32.0419 15.3854 31.4403 14.896 30.9917C14.4066 30.5227 13.7847 30.176 13.0302 29.9517C12.2961 29.707 11.2867 29.4419 10.0021 29.1564C8.24839 28.769 6.83118 28.3714 5.75042 27.9635C4.69006 27.5557 3.77244 26.9134 2.99756 26.0365C2.22268 25.1597 1.83524 23.9566 1.83524 22.4272C1.83524 20.959 2.19209 19.7152 2.9058 18.6956C3.6195 17.6556 4.5983 16.8807 5.84219 16.3709C7.08607 15.8408 8.50329 15.5757 10.0938 15.5757C11.6436 15.5757 13.0812 15.8509 14.4066 16.4015C15.7321 16.9317 16.8434 17.7576 17.7407 18.8791C18.6379 19.9802 19.2089 21.3363 19.4536 22.9472H14.9572C14.6717 21.7441 14.0804 20.8469 13.1832 20.2555C12.3063 19.6438 11.246 19.3379 10.0021 19.3379C8.86014 19.3379 7.94252 19.5826 7.2492 20.072C6.55589 20.541 6.20923 21.2037 6.20923 22.0602C6.20923 22.7331 6.44374 23.2735 6.91274 23.6813C7.38175 24.0891 7.96291 24.4052 8.65622 24.6295C9.34954 24.8538 10.3181 25.1087 11.562 25.3942C13.3361 25.7816 14.7839 26.1895 15.9054 26.6177C17.0474 27.0459 18.0262 27.7392 18.8418 28.6976C19.6575 29.656 20.0653 30.9509 20.0653 32.5822C20.0653 34.8049 19.2904 36.5586 17.7407 37.8433C16.2113 39.1279 14.0804 39.7703 11.3479 39.7703ZM21.6967 22.1825H26.1013L28.5789 31.4811C28.7624 32.154 28.8542 32.9697 28.8542 33.9281H29.2518C29.2722 33.3571 29.3028 32.8983 29.3436 32.5516C29.3843 32.205 29.4557 31.8481 29.5577 31.4811L32.3105 22.1825H35.8893L38.6421 31.4811C38.8256 32.1132 38.9378 32.9289 38.9786 33.9281H39.3456C39.3864 32.9493 39.4884 32.1336 39.6515 31.4811L42.1902 22.1825H46.5642L41.242 39.342H37.3574L34.7269 30.0129C34.5026 29.0749 34.3599 28.198 34.2987 27.3824H33.9317C33.8909 27.9126 33.8399 28.351 33.7787 28.6976C33.7379 29.0443 33.6564 29.4827 33.534 30.0129L30.8423 39.342H26.9272L21.6967 22.1825ZM53.867 39.6785C52.1949 39.6785 50.8388 39.2401 49.7989 38.3632C48.7589 37.466 48.2389 36.2221 48.2389 34.6316C48.2389 32.9187 48.8914 31.6136 50.1965 30.7164C51.1345 30.0639 52.4701 29.5745 54.2034 29.2482L59.3115 28.3C59.3115 27.2804 59.0362 26.475 58.4857 25.8836C57.9759 25.333 57.2112 25.0577 56.1916 25.0577C55.3963 25.0577 54.6928 25.2922 54.0811 25.7613C53.4897 26.2303 53.1227 26.8624 52.9799 27.6577H48.8812C49.1667 25.7613 50.0028 24.3135 51.3894 23.3143C52.776 22.3151 54.387 21.8155 56.2222 21.8155C57.2622 21.8155 58.2308 21.9684 59.128 22.2743C60.0252 22.5598 60.7899 22.988 61.4221 23.559C62.0542 24.1095 62.513 24.7519 62.7985 25.486C63.084 26.2201 63.2573 26.9542 63.3185 27.6883C63.4 28.4224 63.4408 29.3298 63.4408 30.4105V39.342H59.3115V38.8526C59.3115 38.3225 59.4441 37.7821 59.7092 37.2315L59.2503 36.9868C58.8833 37.7413 58.3735 38.3327 57.721 38.7609C56.8034 39.3726 55.5187 39.6785 53.867 39.6785ZM54.8764 36.4362C55.6308 36.4362 56.3649 36.2731 57.0786 35.9468C57.7312 35.641 58.2512 35.1924 58.6386 34.601C58.8221 34.2951 58.9649 33.9994 59.0668 33.714C59.1688 33.4081 59.2809 32.9901 59.4033 32.4599C59.4441 32.2152 59.5052 32.0419 59.5868 31.9399C59.6888 31.8176 59.8315 31.7462 60.015 31.7258L59.9233 31.2364C58.2919 31.5627 57.2418 31.7768 56.7728 31.8787L55.3046 32.154C54.2034 32.3579 53.4082 32.6842 52.9188 33.1328C52.5517 33.4999 52.3682 33.9485 52.3682 34.4787C52.3682 35.1108 52.5925 35.6002 53.0411 35.9468C53.5101 36.2731 54.1219 36.4362 54.8764 36.4362ZM66.9835 22.1825H71.1127V22.7331C71.1127 23.0594 71.0822 23.3245 71.021 23.5284C70.9598 23.7323 70.8375 23.9362 70.6539 24.1401L71.0822 24.446C71.7143 23.508 72.4178 22.8351 73.1927 22.4272C73.9676 22.0194 74.9056 21.8155 76.0067 21.8155H76.4961V25.7918H75.5479C74.2429 25.7918 73.2233 26.1385 72.4892 26.8318C72.0202 27.3008 71.6735 27.9024 71.4492 28.6365C71.2249 29.3502 71.1127 30.2678 71.1127 31.3893V39.342H66.9835V22.1825ZM83.7076 39.6785C82.0355 39.6785 80.6794 39.2401 79.6395 38.3632C78.5995 37.466 78.0795 36.2221 78.0795 34.6316C78.0795 32.9187 78.732 31.6136 80.0371 30.7164C80.9751 30.0639 82.3107 29.5745 84.044 29.2482L89.1521 28.3C89.1521 27.2804 88.8768 26.475 88.3263 25.8836C87.8165 25.333 87.0518 25.0577 86.0322 25.0577C85.2369 25.0577 84.5334 25.2922 83.9217 25.7613C83.3303 26.2303 82.9633 26.8624 82.8205 27.6577H78.7218C79.0073 25.7613 79.8434 24.3135 81.23 23.3143C82.6166 22.3151 84.2276 21.8155 86.0628 21.8155C87.1028 21.8155 88.0714 21.9684 88.9686 22.2743C89.8658 22.5598 90.6305 22.988 91.2626 23.559C91.8948 24.1095 92.3536 24.7519 92.6391 25.486C92.9246 26.2201 93.0979 26.9542 93.1591 27.6883C93.2406 28.4224 93.2814 29.3298 93.2814 30.4105V39.342H89.1521V38.8526C89.1521 38.3225 89.2847 37.7821 89.5498 37.2315L89.0909 36.9868C88.7239 37.7413 88.2141 38.3327 87.5616 38.7609C86.644 39.3726 85.3593 39.6785 83.7076 39.6785ZM84.717 36.4362C85.4714 36.4362 86.2055 36.2731 86.9192 35.9468C87.5718 35.641 88.0918 35.1924 88.4792 34.601C88.6627 34.2951 88.8055 33.9994 88.9074 33.714C89.0094 33.4081 89.1215 32.9901 89.2439 32.4599C89.2847 32.2152 89.3458 32.0419 89.4274 31.9399C89.5294 31.8176 89.6721 31.7462 89.8556 31.7258L89.7639 31.2364C88.1325 31.5627 87.0824 31.7768 86.6134 31.8787L85.1452 32.154C84.044 32.3579 83.2488 32.6842 82.7594 33.1328C82.3923 33.4999 82.2088 33.9485 82.2088 34.4787C82.2088 35.1108 82.4331 35.6002 82.8817 35.9468C83.3507 36.2731 83.9625 36.4362 84.717 36.4362ZM105.847 39.6785C104.746 39.6785 103.818 39.4848 103.064 39.0973C102.309 38.7099 101.606 38.037 100.953 37.0786L100.525 37.3539C100.688 37.5782 100.8 37.8025 100.862 38.0268C100.943 38.2307 100.984 38.4856 100.984 38.7915V39.342H96.8546V16.0039H100.984V22.7331C100.984 23.039 100.943 23.2939 100.862 23.4978C100.8 23.7017 100.688 23.9158 100.525 24.1401L100.953 24.446C101.606 23.4876 102.309 22.8147 103.064 22.4272C103.818 22.0194 104.746 21.8155 105.847 21.8155C107.336 21.8155 108.651 22.1927 109.793 22.9472C110.935 23.7017 111.822 24.7621 112.454 26.1283C113.086 27.4741 113.402 29.0137 113.402 30.747C113.402 32.4803 113.086 34.03 112.454 35.3963C111.822 36.7421 110.935 37.7923 109.793 38.5468C108.651 39.3013 107.336 39.6785 105.847 39.6785ZM104.899 36.1304C106.204 36.1304 107.254 35.6308 108.05 34.6316C108.845 33.612 109.243 32.3171 109.243 30.747C109.243 29.1768 108.845 27.8922 108.05 26.893C107.254 25.8734 106.204 25.3636 104.899 25.3636C103.594 25.3636 102.523 25.8632 101.687 26.8624C100.872 27.8616 100.464 29.1564 100.464 30.747C100.464 32.3375 100.872 33.6324 101.687 34.6316C102.523 35.6308 103.594 36.1304 104.899 36.1304ZM116.509 16.0039H120.639V22.7331C120.639 23.039 120.598 23.2939 120.516 23.4978C120.455 23.7017 120.343 23.9158 120.18 24.1401L120.608 24.446C121.24 23.4876 121.923 22.8147 122.657 22.4272C123.412 22.0194 124.289 21.8155 125.288 21.8155C127.98 21.8155 129.764 22.7739 130.641 24.6907C130.967 25.3636 131.171 26.0467 131.253 26.74C131.334 27.4334 131.375 28.3408 131.375 29.4623V39.342H127.246V29.4011C127.246 28.5243 127.174 27.8208 127.031 27.2906C126.909 26.74 126.705 26.3016 126.42 25.9754C125.93 25.4656 125.206 25.2107 124.248 25.2107C123.086 25.2107 122.209 25.5573 121.617 26.2506C121.271 26.6585 121.016 27.1989 120.853 27.8718C120.71 28.5447 120.639 29.4521 120.639 30.5941V39.342H116.509V16.0039ZM139.954 39.6785C138.282 39.6785 136.926 39.2401 135.886 38.3632C134.846 37.466 134.326 36.2221 134.326 34.6316C134.326 32.9187 134.978 31.6136 136.283 30.7164C137.221 30.0639 138.557 29.5745 140.29 29.2482L145.398 28.3C145.398 27.2804 145.123 26.475 144.572 25.8836C144.063 25.333 143.298 25.0577 142.278 25.0577C141.483 25.0577 140.78 25.2922 140.168 25.7613C139.576 26.2303 139.209 26.8624 139.067 27.6577H134.968C135.253 25.7613 136.089 24.3135 137.476 23.3143C138.863 22.3151 140.474 21.8155 142.309 21.8155C143.349 21.8155 144.317 21.9684 145.215 22.2743C146.112 22.5598 146.877 22.988 147.509 23.559C148.141 24.1095 148.6 24.7519 148.885 25.486C149.171 26.2201 149.344 26.9542 149.405 27.6883C149.487 28.4224 149.528 29.3298 149.528 30.4105V39.342H145.398V38.8526C145.398 38.3225 145.531 37.7821 145.796 37.2315L145.337 36.9868C144.97 37.7413 144.46 38.3327 143.808 38.7609C142.89 39.3726 141.605 39.6785 139.954 39.6785ZM140.963 36.4362C141.718 36.4362 142.452 36.2731 143.165 35.9468C143.818 35.641 144.338 35.1924 144.725 34.601C144.909 34.2951 145.052 33.9994 145.154 33.714C145.255 33.4081 145.368 32.9901 145.49 32.4599C145.531 32.2152 145.592 32.0419 145.673 31.9399C145.775 31.8176 145.918 31.7462 146.102 31.7258L146.01 31.2364C144.379 31.5627 143.328 31.7768 142.859 31.8787L141.391 32.154C140.29 32.3579 139.495 32.6842 139.005 33.1328C138.638 33.4999 138.455 33.9485 138.455 34.4787C138.455 35.1108 138.679 35.6002 139.128 35.9468C139.597 36.2731 140.209 36.4362 140.963 36.4362ZM158.025 39.6785C156.353 39.6785 154.997 39.2401 153.957 38.3632C152.917 37.466 152.397 36.2221 152.397 34.6316C152.397 32.9187 153.05 31.6136 154.355 30.7164C155.293 30.0639 156.628 29.5745 158.362 29.2482L163.47 28.3C163.47 27.2804 163.195 26.475 162.644 25.8836C162.134 25.333 161.37 25.0577 160.35 25.0577C159.555 25.0577 158.851 25.2922 158.239 25.7613C157.648 26.2303 157.281 26.8624 157.138 27.6577H153.04C153.325 25.7613 154.161 24.3135 155.548 23.3143C156.934 22.3151 158.545 21.8155 160.381 21.8155C161.42 21.8155 162.389 21.9684 163.286 22.2743C164.184 22.5598 164.948 22.988 165.58 23.559C166.213 24.1095 166.671 24.7519 166.957 25.486C167.242 26.2201 167.416 26.9542 167.477 27.6883C167.558 28.4224 167.599 29.3298 167.599 30.4105V39.342H163.47V38.8526C163.47 38.3225 163.602 37.7821 163.867 37.2315L163.409 36.9868C163.042 37.7413 162.532 38.3327 161.879 38.7609C160.962 39.3726 159.677 39.6785 158.025 39.6785ZM159.035 36.4362C159.789 36.4362 160.523 36.2731 161.237 35.9468C161.89 35.641 162.409 35.1924 162.797 34.601C162.98 34.2951 163.123 33.9994 163.225 33.714C163.327 33.4081 163.439 32.9901 163.562 32.4599C163.602 32.2152 163.664 32.0419 163.745 31.9399C163.847 31.8176 163.99 31.7462 164.173 31.7258L164.082 31.2364C162.45 31.5627 161.4 31.7768 160.931 31.8787L159.463 32.154C158.362 32.3579 157.566 32.6842 157.077 33.1328C156.71 33.4999 156.527 33.9485 156.527 34.4787C156.527 35.1108 156.751 35.6002 157.199 35.9468C157.668 36.2731 158.28 36.4362 159.035 36.4362ZM178.575 39.6785C176.454 39.6785 174.619 39.1687 173.069 38.1491C171.519 37.1296 170.612 35.6002 170.347 33.561H174.415C174.68 34.4787 175.169 35.1924 175.883 35.7021C176.597 36.1915 177.484 36.4362 178.544 36.4362C179.441 36.4362 180.165 36.2629 180.716 35.9163C181.287 35.5696 181.572 35.0802 181.572 34.4481C181.572 33.7547 181.236 33.2552 180.563 32.9493C179.91 32.6434 178.891 32.3579 177.504 32.0928C176.179 31.8277 175.077 31.5423 174.201 31.2364C173.324 30.9305 172.579 30.4411 171.968 29.7682C171.356 29.0749 171.05 28.1369 171.05 26.9542C171.05 25.2617 171.672 23.9872 172.916 23.1307C174.18 22.2539 175.771 21.8155 177.687 21.8155C179.706 21.8155 181.378 22.3253 182.704 23.3449C184.05 24.3644 184.876 25.802 185.181 27.6577H181.297C181.072 26.7604 180.634 26.1079 179.982 25.7001C179.329 25.2719 178.554 25.0577 177.657 25.0577C176.841 25.0577 176.189 25.2209 175.699 25.5471C175.23 25.853 174.996 26.271 174.996 26.8012C174.996 27.4334 175.312 27.882 175.944 28.1471C176.576 28.4122 177.575 28.6772 178.942 28.9423C180.349 29.2074 181.491 29.4929 182.367 29.7988C183.265 30.0843 184.029 30.5737 184.661 31.267C185.314 31.9603 185.64 32.9187 185.64 34.1422C185.64 35.8347 185.008 37.1805 183.744 38.1797C182.5 39.1789 180.777 39.6785 178.575 39.6785Z" fill="#FB5607"/>
<path d="M11.3479 39.7703C9.71659 39.7703 8.15663 39.5052 6.66804 38.975C5.17946 38.4448 3.91518 37.5884 2.87521 36.4057C1.85563 35.2026 1.25408 33.6528 1.07056 31.7564H5.62807C5.97473 33.2857 6.66804 34.3767 7.70801 35.0292C8.74799 35.6818 9.97148 36.008 11.3785 36.008C12.6632 36.008 13.6929 35.7429 14.4678 35.2127C15.2427 34.6622 15.6301 33.8567 15.6301 32.7963C15.6301 32.0419 15.3854 31.4403 14.896 30.9917C14.4066 30.5227 13.7847 30.176 13.0302 29.9517C12.2961 29.707 11.2867 29.4419 10.0021 29.1564C8.24839 28.769 6.83118 28.3714 5.75042 27.9635C4.69006 27.5557 3.77244 26.9134 2.99756 26.0365C2.22268 25.1597 1.83524 23.9566 1.83524 22.4272C1.83524 20.959 2.19209 19.7152 2.9058 18.6956C3.6195 17.6556 4.5983 16.8807 5.84219 16.3709C7.08607 15.8408 8.50329 15.5757 10.0938 15.5757C11.6436 15.5757 13.0812 15.8509 14.4066 16.4015C15.7321 16.9317 16.8434 17.7576 17.7407 18.8791C18.6379 19.9802 19.2089 21.3363 19.4536 22.9472H14.9572C14.6717 21.7441 14.0804 20.8469 13.1832 20.2555C12.3063 19.6438 11.246 19.3379 10.0021 19.3379C8.86014 19.3379 7.94252 19.5826 7.2492 20.072C6.55589 20.541 6.20923 21.2037 6.20923 22.0602C6.20923 22.7331 6.44374 23.2735 6.91274 23.6813C7.38175 24.0891 7.96291 24.4052 8.65622 24.6295C9.34954 24.8538 10.3181 25.1087 11.562 25.3942C13.3361 25.7816 14.7839 26.1895 15.9054 26.6177C17.0474 27.0459 18.0262 27.7392 18.8418 28.6976C19.6575 29.656 20.0653 30.9509 20.0653 32.5822C20.0653 34.8049 19.2904 36.5586 17.7407 37.8433C16.2113 39.1279 14.0804 39.7703 11.3479 39.7703ZM21.6967 22.1825H26.1013L28.5789 31.4811C28.7624 32.154 28.8542 32.9697 28.8542 33.9281H29.2518C29.2722 33.3571 29.3028 32.8983 29.3436 32.5516C29.3843 32.205 29.4557 31.8481 29.5577 31.4811L32.3105 22.1825H35.8893L38.6421 31.4811C38.8256 32.1132 38.9378 32.9289 38.9786 33.9281H39.3456C39.3864 32.9493 39.4884 32.1336 39.6515 31.4811L42.1902 22.1825H46.5642L41.242 39.342H37.3574L34.7269 30.0129C34.5026 29.0749 34.3599 28.198 34.2987 27.3824H33.9317C33.8909 27.9126 33.8399 28.351 33.7787 28.6976C33.7379 29.0443 33.6564 29.4827 33.534 30.0129L30.8423 39.342H26.9272L21.6967 22.1825ZM53.867 39.6785C52.1949 39.6785 50.8388 39.2401 49.7989 38.3632C48.7589 37.466 48.2389 36.2221 48.2389 34.6316C48.2389 32.9187 48.8914 31.6136 50.1965 30.7164C51.1345 30.0639 52.4701 29.5745 54.2034 29.2482L59.3115 28.3C59.3115 27.2804 59.0362 26.475 58.4857 25.8836C57.9759 25.333 57.2112 25.0577 56.1916 25.0577C55.3963 25.0577 54.6928 25.2922 54.0811 25.7613C53.4897 26.2303 53.1227 26.8624 52.9799 27.6577H48.8812C49.1667 25.7613 50.0028 24.3135 51.3894 23.3143C52.776 22.3151 54.387 21.8155 56.2222 21.8155C57.2622 21.8155 58.2308 21.9684 59.128 22.2743C60.0252 22.5598 60.7899 22.988 61.4221 23.559C62.0542 24.1095 62.513 24.7519 62.7985 25.486C63.084 26.2201 63.2573 26.9542 63.3185 27.6883C63.4 28.4224 63.4408 29.3298 63.4408 30.4105V39.342H59.3115V38.8526C59.3115 38.3225 59.4441 37.7821 59.7092 37.2315L59.2503 36.9868C58.8833 37.7413 58.3735 38.3327 57.721 38.7609C56.8034 39.3726 55.5187 39.6785 53.867 39.6785ZM54.8764 36.4362C55.6308 36.4362 56.3649 36.2731 57.0786 35.9468C57.7312 35.641 58.2512 35.1924 58.6386 34.601C58.8221 34.2951 58.9649 33.9994 59.0668 33.714C59.1688 33.4081 59.2809 32.9901 59.4033 32.4599C59.4441 32.2152 59.5052 32.0419 59.5868 31.9399C59.6888 31.8176 59.8315 31.7462 60.015 31.7258L59.9233 31.2364C58.2919 31.5627 57.2418 31.7768 56.7728 31.8787L55.3046 32.154C54.2034 32.3579 53.4082 32.6842 52.9188 33.1328C52.5517 33.4999 52.3682 33.9485 52.3682 34.4787C52.3682 35.1108 52.5925 35.6002 53.0411 35.9468C53.5101 36.2731 54.1219 36.4362 54.8764 36.4362ZM66.9835 22.1825H71.1127V22.7331C71.1127 23.0594 71.0822 23.3245 71.021 23.5284C70.9598 23.7323 70.8375 23.9362 70.6539 24.1401L71.0822 24.446C71.7143 23.508 72.4178 22.8351 73.1927 22.4272C73.9676 22.0194 74.9056 21.8155 76.0067 21.8155H76.4961V25.7918H75.5479C74.2429 25.7918 73.2233 26.1385 72.4892 26.8318C72.0202 27.3008 71.6735 27.9024 71.4492 28.6365C71.2249 29.3502 71.1127 30.2678 71.1127 31.3893V39.342H66.9835V22.1825ZM83.7076 39.6785C82.0355 39.6785 80.6794 39.2401 79.6395 38.3632C78.5995 37.466 78.0795 36.2221 78.0795 34.6316C78.0795 32.9187 78.732 31.6136 80.0371 30.7164C80.9751 30.0639 82.3107 29.5745 84.044 29.2482L89.1521 28.3C89.1521 27.2804 88.8768 26.475 88.3263 25.8836C87.8165 25.333 87.0518 25.0577 86.0322 25.0577C85.2369 25.0577 84.5334 25.2922 83.9217 25.7613C83.3303 26.2303 82.9633 26.8624 82.8205 27.6577H78.7218C79.0073 25.7613 79.8434 24.3135 81.23 23.3143C82.6166 22.3151 84.2276 21.8155 86.0628 21.8155C87.1028 21.8155 88.0714 21.9684 88.9686 22.2743C89.8658 22.5598 90.6305 22.988 91.2626 23.559C91.8948 24.1095 92.3536 24.7519 92.6391 25.486C92.9246 26.2201 93.0979 26.9542 93.1591 27.6883C93.2406 28.4224 93.2814 29.3298 93.2814 30.4105V39.342H89.1521V38.8526C89.1521 38.3225 89.2847 37.7821 89.5498 37.2315L89.0909 36.9868C88.7239 37.7413 88.2141 38.3327 87.5616 38.7609C86.644 39.3726 85.3593 39.6785 83.7076 39.6785ZM84.717 36.4362C85.4714 36.4362 86.2055 36.2731 86.9192 35.9468C87.5718 35.641 88.0918 35.1924 88.4792 34.601C88.6627 34.2951 88.8055 33.9994 88.9074 33.714C89.0094 33.4081 89.1215 32.9901 89.2439 32.4599C89.2847 32.2152 89.3458 32.0419 89.4274 31.9399C89.5294 31.8176 89.6721 31.7462 89.8556 31.7258L89.7639 31.2364C88.1325 31.5627 87.0824 31.7768 86.6134 31.8787L85.1452 32.154C84.044 32.3579 83.2488 32.6842 82.7594 33.1328C82.3923 33.4999 82.2088 33.9485 82.2088 34.4787C82.2088 35.1108 82.4331 35.6002 82.8817 35.9468C83.3507 36.2731 83.9625 36.4362 84.717 36.4362ZM105.847 39.6785C104.746 39.6785 103.818 39.4848 103.064 39.0973C102.309 38.7099 101.606 38.037 100.953 37.0786L100.525 37.3539C100.688 37.5782 100.8 37.8025 100.862 38.0268C100.943 38.2307 100.984 38.4856 100.984 38.7915V39.342H96.8546V16.0039H100.984V22.7331C100.984 23.039 100.943 23.2939 100.862 23.4978C100.8 23.7017 100.688 23.9158 100.525 24.1401L100.953 24.446C101.606 23.4876 102.309 22.8147 103.064 22.4272C103.818 22.0194 104.746 21.8155 105.847 21.8155C107.336 21.8155 108.651 22.1927 109.793 22.9472C110.935 23.7017 111.822 24.7621 112.454 26.1283C113.086 27.4741 113.402 29.0137 113.402 30.747C113.402 32.4803 113.086 34.03 112.454 35.3963C111.822 36.7421 110.935 37.7923 109.793 38.5468C108.651 39.3013 107.336 39.6785 105.847 39.6785ZM104.899 36.1304C106.204 36.1304 107.254 35.6308 108.05 34.6316C108.845 33.612 109.243 32.3171 109.243 30.747C109.243 29.1768 108.845 27.8922 108.05 26.893C107.254 25.8734 106.204 25.3636 104.899 25.3636C103.594 25.3636 102.523 25.8632 101.687 26.8624C100.872 27.8616 100.464 29.1564 100.464 30.747C100.464 32.3375 100.872 33.6324 101.687 34.6316C102.523 35.6308 103.594 36.1304 104.899 36.1304ZM116.509 16.0039H120.639V22.7331C120.639 23.039 120.598 23.2939 120.516 23.4978C120.455 23.7017 120.343 23.9158 120.18 24.1401L120.608 24.446C121.24 23.4876 121.923 22.8147 122.657 22.4272C123.412 22.0194 124.289 21.8155 125.288 21.8155C127.98 21.8155 129.764 22.7739 130.641 24.6907C130.967 25.3636 131.171 26.0467 131.253 26.74C131.334 27.4334 131.375 28.3408 131.375 29.4623V39.342H127.246V29.4011C127.246 28.5243 127.174 27.8208 127.031 27.2906C126.909 26.74 126.705 26.3016 126.42 25.9754C125.93 25.4656 125.206 25.2107 124.248 25.2107C123.086 25.2107 122.209 25.5573 121.617 26.2506C121.271 26.6585 121.016 27.1989 120.853 27.8718C120.71 28.5447 120.639 29.4521 120.639 30.5941V39.342H116.509V16.0039ZM139.954 39.6785C138.282 39.6785 136.926 39.2401 135.886 38.3632C134.846 37.466 134.326 36.2221 134.326 34.6316C134.326 32.9187 134.978 31.6136 136.283 30.7164C137.221 30.0639 138.557 29.5745 140.29 29.2482L145.398 28.3C145.398 27.2804 145.123 26.475 144.572 25.8836C144.063 25.333 143.298 25.0577 142.278 25.0577C141.483 25.0577 140.78 25.2922 140.168 25.7613C139.576 26.2303 139.209 26.8624 139.067 27.6577H134.968C135.253 25.7613 136.089 24.3135 137.476 23.3143C138.863 22.3151 140.474 21.8155 142.309 21.8155C143.349 21.8155 144.317 21.9684 145.215 22.2743C146.112 22.5598 146.877 22.988 147.509 23.559C148.141 24.1095 148.6 24.7519 148.885 25.486C149.171 26.2201 149.344 26.9542 149.405 27.6883C149.487 28.4224 149.528 29.3298 149.528 30.4105V39.342H145.398V38.8526C145.398 38.3225 145.531 37.7821 145.796 37.2315L145.337 36.9868C144.97 37.7413 144.46 38.3327 143.808 38.7609C142.89 39.3726 141.605 39.6785 139.954 39.6785ZM140.963 36.4362C141.718 36.4362 142.452 36.2731 143.165 35.9468C143.818 35.641 144.338 35.1924 144.725 34.601C144.909 34.2951 145.052 33.9994 145.154 33.714C145.255 33.4081 145.368 32.9901 145.49 32.4599C145.531 32.2152 145.592 32.0419 145.673 31.9399C145.775 31.8176 145.918 31.7462 146.102 31.7258L146.01 31.2364C144.379 31.5627 143.328 31.7768 142.859 31.8787L141.391 32.154C140.29 32.3579 139.495 32.6842 139.005 33.1328C138.638 33.4999 138.455 33.9485 138.455 34.4787C138.455 35.1108 138.679 35.6002 139.128 35.9468C139.597 36.2731 140.209 36.4362 140.963 36.4362ZM158.025 39.6785C156.353 39.6785 154.997 39.2401 153.957 38.3632C152.917 37.466 152.397 36.2221 152.397 34.6316C152.397 32.9187 153.05 31.6136 154.355 30.7164C155.293 30.0639 156.628 29.5745 158.362 29.2482L163.47 28.3C163.47 27.2804 163.195 26.475 162.644 25.8836C162.134 25.333 161.37 25.0577 160.35 25.0577C159.555 25.0577 158.851 25.2922 158.239 25.7613C157.648 26.2303 157.281 26.8624 157.138 27.6577H153.04C153.325 25.7613 154.161 24.3135 155.548 23.3143C156.934 22.3151 158.545 21.8155 160.381 21.8155C161.42 21.8155 162.389 21.9684 163.286 22.2743C164.184 22.5598 164.948 22.988 165.58 23.559C166.213 24.1095 166.671 24.7519 166.957 25.486C167.242 26.2201 167.416 26.9542 167.477 27.6883C167.558 28.4224 167.599 29.3298 167.599 30.4105V39.342H163.47V38.8526C163.47 38.3225 163.602 37.7821 163.867 37.2315L163.409 36.9868C163.042 37.7413 162.532 38.3327 161.879 38.7609C160.962 39.3726 159.677 39.6785 158.025 39.6785ZM159.035 36.4362C159.789 36.4362 160.523 36.2731 161.237 35.9468C161.89 35.641 162.409 35.1924 162.797 34.601C162.98 34.2951 163.123 33.9994 163.225 33.714C163.327 33.4081 163.439 32.9901 163.562 32.4599C163.602 32.2152 163.664 32.0419 163.745 31.9399C163.847 31.8176 163.99 31.7462 164.173 31.7258L164.082 31.2364C162.45 31.5627 161.4 31.7768 160.931 31.8787L159.463 32.154C158.362 32.3579 157.566 32.6842 157.077 33.1328C156.71 33.4999 156.527 33.9485 156.527 34.4787C156.527 35.1108 156.751 35.6002 157.199 35.9468C157.668 36.2731 158.28 36.4362 159.035 36.4362ZM178.575 39.6785C176.454 39.6785 174.619 39.1687 173.069 38.1491C171.519 37.1296 170.612 35.6002 170.347 33.561H174.415C174.68 34.4787 175.169 35.1924 175.883 35.7021C176.597 36.1915 177.484 36.4362 178.544 36.4362C179.441 36.4362 180.165 36.2629 180.716 35.9163C181.287 35.5696 181.572 35.0802 181.572 34.4481C181.572 33.7547 181.236 33.2552 180.563 32.9493C179.91 32.6434 178.891 32.3579 177.504 32.0928C176.179 31.8277 175.077 31.5423 174.201 31.2364C173.324 30.9305 172.579 30.4411 171.968 29.7682C171.356 29.0749 171.05 28.1369 171.05 26.9542C171.05 25.2617 171.672 23.9872 172.916 23.1307C174.18 22.2539 175.771 21.8155 177.687 21.8155C179.706 21.8155 181.378 22.3253 182.704 23.3449C184.05 24.3644 184.876 25.802 185.181 27.6577H181.297C181.072 26.7604 180.634 26.1079 179.982 25.7001C179.329 25.2719 178.554 25.0577 177.657 25.0577C176.841 25.0577 176.189 25.2209 175.699 25.5471C175.23 25.853 174.996 26.271 174.996 26.8012C174.996 27.4334 175.312 27.882 175.944 28.1471C176.576 28.4122 177.575 28.6772 178.942 28.9423C180.349 29.2074 181.491 29.4929 182.367 29.7988C183.265 30.0843 184.029 30.5737 184.661 31.267C185.314 31.9603 185.64 32.9187 185.64 34.1422C185.64 35.8347 185.008 37.1805 183.744 38.1797C182.5 39.1789 180.777 39.6785 178.575 39.6785Z" fill="#FB5607"/>
<rect x="71.6024" y="45.8811" width="114.007" height="5.56134" fill="#FFD425"/>
<rect x="125.825" y="45.8811" width="59.7844" height="5.56134" fill="#FF006E"/>
<rect width="77.8587" height="8.34201" fill="#3A86FF"/>
</svg>
